<svg width="82" height="82" viewBox="0 0 82 82" fill="none" xmlns="http://www.w3.org/2000/svg">
<rect width="82" height="82" fill="white"/>
<g style="mix-blend-mode:luminosity">
<mask id="mask0_901_2" style="mask-type:alpha" maskUnits="userSpaceOnUse" x="76" y="56" width="5" height="12">
<path d="M79.0629 67.4857C79.0315 67.5118 78.9999 67.5357 78.9663 67.5575C78.8057 67.6649 78.6254 67.7339 78.4367 67.7596C78.2489 67.7854 78.0577 67.7673 77.8776 67.7065C77.2132 67.4851 75.2364 66.5053 76.9005 65.1793C79.5286 63.0819 79.4483 56.5252 79.4472 56.34C79.5308 56.5734 82.4456 64.6971 79.0629 67.4857Z" fill="white"/>
</mask>
<g mask="url(#mask0_901_2)">
<path d="M79.0629 67.4857C79.0315 67.5118 78.9999 67.5357 78.9663 67.5575C78.8057 67.6649 78.6254 67.7339 78.4367 67.7596C78.2489 67.7854 78.0577 67.7673 77.8776 67.7065C77.2132 67.4851 75.2364 66.5053 76.9005 65.1793C79.5286 63.0819 79.4483 56.5252 79.4472 56.34C79.5308 56.5734 82.4456 64.6971 79.0629 67.4857Z" fill="#032E7A" stroke="white" stroke-width="2.18055"/>
</g>
<mask id="mask1_901_2" style="mask-type:alpha" maskUnits="userSpaceOnUse" x="1" y="16" width="80" height="54">
<path d="M79.484 62.2512C78.6959 63.4548 77.1534 64.4373 75.8137 64.7105C75.4708 64.7785 75.1222 64.8131 74.7727 64.8142C73.3853 64.8301 71.9307 64.4327 70.5826 64.313C70.3664 64.2936 69.8661 64.2021 69.4361 64.2428C69.3895 64.2465 69.345 64.2521 69.3015 64.2596C69.1886 64.275 69.078 64.3104 68.9759 64.3641C68.94 64.3843 68.9052 64.4075 68.8727 64.4338C68.825 64.4716 68.7847 64.5195 68.7556 64.5747C68.7436 64.5928 68.7338 64.6125 68.7262 64.6333C68.7033 64.6937 68.6904 64.7578 68.6883 64.8229C68.6883 64.8408 68.6883 64.8589 68.6892 64.8769C68.6883 64.8958 68.6883 64.9145 68.6904 64.9333C68.6915 64.9535 68.6936 64.9735 68.6969 64.9934C68.6947 65.0121 68.7033 65.0355 68.7077 65.0572C68.711 65.0719 68.7154 65.0863 68.7208 65.1003C68.7229 65.1064 68.7263 65.1121 68.7295 65.1173C68.7295 65.1173 68.7283 65.1257 68.7283 65.1288C68.787 65.2531 68.9303 65.3676 69.129 65.4736C70.1754 66.0289 72.7905 66.3504 73.3614 66.7391C73.6415 66.9178 73.8619 67.1835 73.9922 67.5003C73.9987 67.5181 74.0063 67.5372 74.0117 67.5546C74.2213 68.1967 73.8999 68.8965 73.1368 69.2364C72.1099 69.6986 70.9483 69.5036 69.8616 69.1142C69.7477 69.0736 69.6358 69.0331 69.5262 68.9889C69.4166 68.9445 69.2852 68.8898 69.1681 68.8349C69.1105 68.8102 69.054 68.7847 68.9987 68.7592C68.6708 68.6147 68.3561 68.4613 68.0596 68.3209C68.0489 68.3137 68.0369 68.3076 68.025 68.3025C67.4768 68.0363 66.9959 67.7157 66.6539 67.3079C66.6539 67.3079 66.6539 67.3026 66.6474 67.2995C66.6419 67.2902 66.6344 67.2819 66.6257 67.2745C66.5941 67.2332 66.5627 67.193 66.5398 67.1571C66.5182 67.1213 66.5073 67.1103 66.4911 67.0859C66.4748 67.0617 66.4672 67.0489 66.4552 67.0293C66.4434 67.0096 66.4281 66.9854 66.4161 66.9648C66.3934 66.9245 66.3716 66.8858 66.3522 66.8439C66.3261 66.7927 66.3022 66.7401 66.2804 66.6862C66.274 66.6705 66.2674 66.6526 66.2608 66.6359C66.2533 66.6188 66.2467 66.601 66.2424 66.5827C66.2033 66.4762 66.1751 66.3659 66.1556 66.2536C66.1035 65.9574 66.1014 65.6538 66.1491 65.3562C66.2435 64.7149 66.2696 64.2811 66.1546 63.9482C66.1512 63.9364 66.1469 63.9249 66.1414 63.9136C65.9916 63.5095 65.615 63.2587 64.8909 62.969C64.8474 62.9515 64.804 62.9318 64.7553 62.9148C64.6217 62.8619 64.4893 62.8124 64.3547 62.7679C64.1234 62.685 63.889 62.6102 63.6555 62.5427C63.6209 62.5318 63.5882 62.522 63.5579 62.5139L63.5341 62.5158C63.5091 62.5022 63.4809 62.4938 63.4526 62.4913C61.3944 61.8751 59.2359 61.7843 57.0844 61.6807L56.9946 61.6761C56.3923 61.6408 55.7891 61.6041 55.1891 61.5565C51.1615 61.2412 47.9485 59.9379 45.5731 56.3624C44.3254 54.4857 43.5811 52.3485 42.471 50.3823C41.3522 48.399 39.9947 46.5498 38.3302 45.0426C35.5257 42.5061 32.0044 41.0321 28.4509 39.9878C27.8628 39.8147 9.32496 32.3064 3.58343 21.5738C-2.15794 10.8412 5.95398 21.6632 12.6123 26.7114C19.2708 31.7598 26.5643 33.3468 26.9249 33.3713C29.0137 33.512 31.1662 33.4857 33.4755 32.5548C35.2767 31.8287 36.2045 30.4254 37.4923 29.4042C41.0043 26.5747 38.9723 24.4963 42.5103 21.4374C43.9951 20.1551 45.597 18.5582 47.0875 18.1296C54.0935 16.1152 58.1 21.025 65.1048 21.9643C64.2146 23.1423 55.1108 28.8779 69.9366 41.8263L69.953 41.838C70.2645 42.1106 70.5858 42.3854 70.9223 42.6646C71.071 42.7883 71.2229 42.9123 71.3771 43.0368C71.8341 43.4102 72.2684 43.8142 72.6765 44.2464C73.7968 45.4253 74.7152 46.7805 75.5294 48.2066C76.5151 49.9369 77.351 51.7699 78.2064 53.5211C78.5254 54.1723 78.8924 54.9308 79.2214 55.74C79.3331 56.0155 79.4417 56.2988 79.5427 56.5834C80.2201 58.5115 80.5489 60.6216 79.484 62.2512Z" fill="white"/>
</mask>
<g mask="url(#mask1_901_2)">
<path d="M79.484 62.2512C78.6959 63.4548 77.1534 64.4373 75.8137 64.7105C75.4708 64.7785 75.1222 64.8131 74.7727 64.8142C73.3853 64.8301 71.9307 64.4327 70.5826 64.313C70.3664 64.2936 69.8661 64.2021 69.4361 64.2428C69.3895 64.2465 69.345 64.2521 69.3015 64.2596C69.1886 64.275 69.078 64.3104 68.9759 64.3641C68.94 64.3843 68.9052 64.4075 68.8727 64.4338C68.825 64.4716 68.7847 64.5195 68.7556 64.5747C68.7436 64.5928 68.7338 64.6125 68.7262 64.6333C68.7033 64.6937 68.6904 64.7578 68.6883 64.8229C68.6883 64.8408 68.6883 64.8589 68.6892 64.8769C68.6883 64.8958 68.6883 64.9145 68.6904 64.9333C68.6915 64.9535 68.6936 64.9735 68.6969 64.9934C68.6947 65.0121 68.7033 65.0355 68.7077 65.0572C68.711 65.0719 68.7154 65.0863 68.7208 65.1003C68.7229 65.1064 68.7263 65.1121 68.7295 65.1173C68.7295 65.1173 68.7283 65.1257 68.7283 65.1288C68.787 65.2531 68.9303 65.3676 69.129 65.4736C70.1754 66.0289 72.7905 66.3504 73.3614 66.7391C73.6415 66.9178 73.8619 67.1835 73.9922 67.5003C73.9987 67.5181 74.0063 67.5372 74.0117 67.5546C74.2213 68.1967 73.8999 68.8965 73.1368 69.2364C72.1099 69.6986 70.9483 69.5036 69.8616 69.1142C69.7477 69.0736 69.6358 69.0331 69.5262 68.9889C69.4166 68.9445 69.2852 68.8898 69.1681 68.8349C69.1105 68.8102 69.054 68.7847 68.9987 68.7592C68.6708 68.6147 68.3561 68.4613 68.0596 68.3209C68.0489 68.3137 68.0369 68.3076 68.025 68.3025C67.4768 68.0363 66.9959 67.7157 66.6539 67.3079C66.6539 67.3079 66.6539 67.3026 66.6474 67.2995C66.6419 67.2902 66.6344 67.2819 66.6257 67.2745C66.5941 67.2332 66.5627 67.193 66.5398 67.1571C66.5182 67.1213 66.5073 67.1103 66.4911 67.0859C66.4748 67.0617 66.4672 67.0489 66.4552 67.0293C66.4434 67.0096 66.4281 66.9854 66.4161 66.9648C66.3934 66.9245 66.3716 66.8858 66.3522 66.8439C66.3261 66.7927 66.3022 66.7401 66.2804 66.6862C66.274 66.6705 66.2674 66.6526 66.2608 66.6359C66.2533 66.6188 66.2467 66.601 66.2424 66.5827C66.2033 66.4762 66.1751 66.3659 66.1556 66.2536C66.1035 65.9574 66.1014 65.6538 66.1491 65.3562C66.2435 64.7149 66.2696 64.2811 66.1546 63.9482C66.1512 63.9364 66.1469 63.9249 66.1414 63.9136C65.9916 63.5095 65.615 63.2587 64.8909 62.969C64.8474 62.9515 64.804 62.9318 64.7553 62.9148C64.6217 62.8619 64.4893 62.8124 64.3547 62.7679C64.1234 62.685 63.889 62.6102 63.6555 62.5427C63.6209 62.5318 63.5882 62.522 63.5579 62.5139L63.5341 62.5158C63.5091 62.5022 63.4809 62.4938 63.4526 62.4913C61.3944 61.8751 59.2359 61.7843 57.0844 61.6807L56.9946 61.6761C56.3923 61.6408 55.7891 61.6041 55.1891 61.5565C51.1615 61.2412 47.9485 59.9379 45.5731 56.3624C44.3254 54.4857 43.5811 52.3485 42.471 50.3823C41.3522 48.399 39.9947 46.5498 38.3302 45.0426C35.5257 42.5061 32.0044 41.0321 28.4509 39.9878C27.8628 39.8147 9.32496 32.3064 3.58343 21.5738C-2.15794 10.8412 5.95398 21.6632 12.6123 26.7114C19.2708 31.7598 26.5643 33.3468 26.9249 33.3713C29.0137 33.512 31.1662 33.4857 33.4755 32.5548C35.2767 31.8287 36.2045 30.4254 37.4923 29.4042C41.0043 26.5747 38.9723 24.4963 42.5103 21.4374C43.9951 20.1551 45.597 18.5582 47.0875 18.1296C54.0935 16.1152 58.1 21.025 65.1048 21.9643C64.2146 23.1423 55.1108 28.8779 69.9366 41.8263L69.953 41.838C70.2645 42.1106 70.5858 42.3854 70.9223 42.6646C71.071 42.7883 71.2229 42.9123 71.3771 43.0368C71.8341 43.4102 72.2684 43.8142 72.6765 44.2464C73.7968 45.4253 74.7152 46.7805 75.5294 48.2066C76.5151 49.9369 77.351 51.7699 78.2064 53.5211C78.5254 54.1723 78.8924 54.9308 79.2214 55.74C79.3331 56.0155 79.4417 56.2988 79.5427 56.5834C80.2201 58.5115 80.5489 60.6216 79.484 62.2512Z" fill="#0F96FF" stroke="white" stroke-width="2.18055"/>
</g>
<g opacity="0.85">
<mask id="mask2_901_2" style="mask-type:alpha" maskUnits="userSpaceOnUse" x="26" y="31" width="55" height="39">
<g opacity="0.85">
<path opacity="0.85" d="M79.4829 62.2519C78.6948 63.4554 77.1534 64.4379 75.8138 64.7111C75.4697 64.7791 75.1212 64.8138 74.7728 64.8148C73.3855 64.8307 71.9308 64.4332 70.5826 64.3137C70.3666 64.2941 69.8661 64.2026 69.4362 64.2433C69.3896 64.247 69.345 64.2526 69.3016 64.2602C69.1888 64.2756 69.078 64.311 68.976 64.3647C68.9401 64.3848 68.9053 64.4082 68.8728 64.4345C68.825 64.4723 68.7849 64.5203 68.7545 64.5752C68.7425 64.5933 68.7338 64.6132 68.7263 64.6339C68.7034 64.6943 68.6904 64.7584 68.6883 64.8234C68.6872 64.8416 68.6872 64.8595 68.6883 64.8776C68.6872 64.8964 68.6883 64.9151 68.6904 64.9339C68.6915 64.954 68.6936 64.9742 68.697 64.994C68.6947 65.0127 68.7024 65.0361 68.7067 65.0579C68.7111 65.0725 68.7154 65.0869 68.7208 65.101C68.7229 65.1069 68.7263 65.1127 68.7295 65.118C68.7306 65.1234 68.7327 65.1287 68.7361 65.1335C68.7784 65.2707 68.9239 65.396 69.1365 65.5048L69.1517 65.5133C70.1983 66.0686 72.8134 66.39 73.3844 66.779C73.6514 66.9498 73.863 67.1991 73.9965 67.4962C74.0031 67.514 74.0108 67.5331 74.0161 67.5505C74.2257 68.1927 73.9044 68.8925 73.1411 69.2324C72.1143 69.6947 70.9528 69.4996 69.8661 69.1102C69.752 69.0695 69.6403 69.0292 69.5306 68.9848C69.421 68.9404 69.2907 68.8859 69.1724 68.8309C69.1149 68.8061 69.0585 68.7806 69.003 68.7551C68.6752 68.6106 68.3604 68.4572 68.064 68.3169C68.0532 68.3098 68.0412 68.3036 68.0294 68.2984C67.4812 68.0323 67.0003 67.7116 66.6583 67.3038C66.6583 67.3038 66.6594 67.2986 66.6517 67.2956C66.6463 67.2863 66.6387 67.2778 66.6301 67.2704C66.5985 67.2291 66.5671 67.1889 66.5444 67.153C66.5226 67.1172 66.5117 67.1062 66.4955 67.082C66.4791 67.0575 66.4716 67.0448 66.4596 67.0253C66.4477 67.0057 66.4325 66.9813 66.4205 66.9607C66.3977 66.9205 66.3761 66.8818 66.3565 66.8399C66.3304 66.7887 66.3065 66.736 66.2849 66.6822C66.2783 66.6663 66.2718 66.6485 66.2654 66.6318C66.2577 66.6147 66.2522 66.5969 66.2468 66.5786C66.2165 66.4855 66.1926 66.3904 66.1751 66.2937C66.1242 66.0021 66.1219 65.7032 66.1676 65.4101C66.2674 64.744 66.2892 64.2993 66.1578 63.9631C66.1546 63.9512 66.1503 63.9397 66.1448 63.9285C65.995 63.5243 65.6183 63.2735 64.8943 62.9838C64.8508 62.9663 64.8063 62.9466 64.7585 62.9296C64.6251 62.8768 64.4925 62.8272 64.3579 62.7827L64.156 62.7154C64.003 62.6651 63.8402 62.6136 63.6578 62.5575C63.6241 62.5466 63.5916 62.5369 63.5612 62.5287L63.5341 62.5165C63.5059 62.5128 63.4798 62.5008 63.4527 62.4918C61.3945 61.8757 59.2357 61.785 57.0843 61.6815L56.9945 61.6768C56.3921 61.6414 55.7888 61.6049 55.189 61.5571C51.1613 61.2419 47.9485 59.9384 45.573 56.3631C44.3255 54.4863 43.5811 52.3491 42.4709 50.383C41.352 48.3998 39.9946 46.5505 38.3301 45.0434C35.5257 42.5068 32.0043 41.0328 28.4508 39.9885C28.7644 37.5034 28.1936 36.0707 28.1936 36.0707C28.1936 36.0707 27.7055 34.4643 26.7869 32.2064C28.8756 32.3471 31.0164 32.227 33.0342 31.6565C33.0895 31.6724 33.148 31.6718 33.2031 31.6548C33.6026 31.6682 34.0144 31.6791 34.4357 31.687C41.3362 31.7972 47.1288 32.5442 51.9781 33.6778C60.707 35.7121 66.377 38.9615 69.9519 41.8671L69.9671 41.8786C70.2797 42.1514 70.6042 42.427 70.9387 42.7055C71.0863 42.8291 71.2382 42.9531 71.3935 43.0776C71.8505 43.4507 72.2848 43.8546 72.6929 44.2872C73.8132 45.4653 74.7316 46.8215 75.5468 48.2474C76.5313 49.9779 77.3672 51.811 78.2216 53.5618C78.5364 54.203 78.8956 54.9467 79.2214 55.7407C79.3342 56.0162 79.4418 56.2995 79.5438 56.5841C80.2201 58.5122 80.5491 60.6222 79.4829 62.2519Z" fill="white"/>
</g>
</mask>
<g mask="url(#mask2_901_2)">
<path opacity="0.85" d="M79.4829 62.2519C78.6948 63.4554 77.1534 64.4379 75.8138 64.7111C75.4697 64.7791 75.1212 64.8138 74.7728 64.8148C73.3855 64.8307 71.9308 64.4332 70.5826 64.3137C70.3666 64.2941 69.8661 64.2026 69.4362 64.2433C69.3896 64.247 69.345 64.2526 69.3016 64.2602C69.1888 64.2756 69.078 64.311 68.976 64.3647C68.9401 64.3848 68.9053 64.4082 68.8728 64.4345C68.825 64.4723 68.7849 64.5203 68.7545 64.5752C68.7425 64.5933 68.7338 64.6132 68.7263 64.6339C68.7034 64.6943 68.6904 64.7584 68.6883 64.8234C68.6872 64.8416 68.6872 64.8595 68.6883 64.8776C68.6872 64.8964 68.6883 64.9151 68.6904 64.9339C68.6915 64.954 68.6936 64.9742 68.697 64.994C68.6947 65.0127 68.7024 65.0361 68.7067 65.0579C68.7111 65.0725 68.7154 65.0869 68.7208 65.101C68.7229 65.1069 68.7263 65.1127 68.7295 65.118C68.7306 65.1234 68.7327 65.1287 68.7361 65.1335C68.7784 65.2707 68.9239 65.396 69.1365 65.5048L69.1517 65.5133C70.1983 66.0686 72.8134 66.39 73.3844 66.779C73.6514 66.9498 73.863 67.1991 73.9965 67.4962C74.0031 67.514 74.0108 67.5331 74.0161 67.5505C74.2257 68.1927 73.9044 68.8925 73.1411 69.2324C72.1143 69.6947 70.9528 69.4996 69.8661 69.1102C69.752 69.0695 69.6403 69.0292 69.5306 68.9848C69.421 68.9404 69.2907 68.8859 69.1724 68.8309C69.1149 68.8061 69.0585 68.7806 69.003 68.7551C68.6752 68.6106 68.3604 68.4572 68.064 68.3169C68.0532 68.3098 68.0412 68.3036 68.0294 68.2984C67.4812 68.0323 67.0003 67.7116 66.6583 67.3038C66.6583 67.3038 66.6594 67.2986 66.6517 67.2956C66.6463 67.2863 66.6387 67.2778 66.6301 67.2704C66.5985 67.2291 66.5671 67.1889 66.5444 67.153C66.5226 67.1172 66.5117 67.1062 66.4955 67.082C66.4791 67.0575 66.4716 67.0448 66.4596 67.0253C66.4477 67.0057 66.4325 66.9813 66.4205 66.9607C66.3977 66.9205 66.3761 66.8818 66.3565 66.8399C66.3304 66.7887 66.3065 66.736 66.2849 66.6822C66.2783 66.6663 66.2718 66.6485 66.2654 66.6318C66.2577 66.6147 66.2522 66.5969 66.2468 66.5786C66.2165 66.4855 66.1926 66.3904 66.1751 66.2937C66.1242 66.0021 66.1219 65.7032 66.1676 65.4101C66.2674 64.744 66.2892 64.2993 66.1578 63.9631C66.1546 63.9512 66.1503 63.9397 66.1448 63.9285C65.995 63.5243 65.6183 63.2735 64.8943 62.9838C64.8508 62.9663 64.8063 62.9466 64.7585 62.9296C64.6251 62.8768 64.4925 62.8272 64.3579 62.7827L64.156 62.7154C64.003 62.6651 63.8402 62.6136 63.6578 62.5575C63.6241 62.5466 63.5916 62.5369 63.5612 62.5287L63.5341 62.5165C63.5059 62.5128 63.4798 62.5008 63.4527 62.4918C61.3945 61.8757 59.2357 61.785 57.0843 61.6815L56.9945 61.6768C56.3921 61.6414 55.7888 61.6049 55.189 61.5571C51.1613 61.2419 47.9485 59.9384 45.573 56.3631C44.3255 54.4863 43.5811 52.3491 42.4709 50.383C41.352 48.3998 39.9946 46.5505 38.3301 45.0434C35.5257 42.5068 32.0043 41.0328 28.4508 39.9885C28.7644 37.5034 28.1936 36.0707 28.1936 36.0707C28.1936 36.0707 27.7055 34.4643 26.7869 32.2064C28.8756 32.3471 31.0164 32.227 33.0342 31.6565C33.0895 31.6724 33.148 31.6718 33.2031 31.6548C33.6026 31.6682 34.0144 31.6791 34.4357 31.687C41.3362 31.7972 47.1288 32.5442 51.9781 33.6778C60.707 35.7121 66.377 38.9615 69.9519 41.8671L69.9671 41.8786C70.2797 42.1514 70.6042 42.427 70.9387 42.7055C71.0863 42.8291 71.2382 42.9531 71.3935 43.0776C71.8505 43.4507 72.2848 43.8546 72.6929 44.2872C73.8132 45.4653 74.7316 46.8215 75.5468 48.2474C76.5313 49.9779 77.3672 51.811 78.2216 53.5618C78.5364 54.203 78.8956 54.9467 79.2214 55.7407C79.3342 56.0162 79.4418 56.2995 79.5438 56.5841C80.2201 58.5122 80.5491 60.6222 79.4829 62.2519Z" fill="#032E7A" stroke="white" stroke-width="2.18055"/>
</g>
</g>
<mask id="mask3_901_2" style="mask-type:alpha" maskUnits="userSpaceOnUse" x="25" y="12" width="50" height="53">
<path d="M74.7729 64.8143C73.3855 64.8303 70.1983 64.2001 70.1983 64.2001C70.1983 64.2001 68.3745 64.0659 64.1496 62.7056C61.3164 61.7931 59.2357 61.7845 57.0839 61.6819L56.9945 61.6762C56.3971 61.6415 55.7878 61.6042 55.189 61.5566C51.1613 61.2414 47.9473 59.9379 45.5729 56.3626C44.3252 54.4858 43.5809 52.3486 42.4709 50.3823C41.352 48.3991 39.9945 46.55 38.33 45.0429C35.5251 42.5029 32.0041 41.0259 28.4501 39.9848C28.3874 39.3053 28.503 38.453 28.374 37.4091C28.16 35.7187 27.4441 33.9843 26.8061 32.2435C26.8003 32.2309 26.7954 32.2177 26.791 32.2044C26.1335 30.4037 25.5661 28.598 25.728 26.8228C26.2956 20.5849 34.4939 18.5654 35.8039 12.2388C35.8039 12.2388 35.8337 12.2491 35.8882 12.2712L35.9169 12.2815C39.2975 13.5513 42.7043 15.0977 45.421 17.4161C45.7433 17.6915 46.0556 17.9803 46.3578 18.2827C46.5737 18.4958 46.7841 18.7156 46.9889 18.942C48.3657 20.4486 49.4194 22.25 50.0796 24.2253C51.1062 27.3053 51.5528 30.4907 51.9819 33.6777C52.5469 37.8727 53.0815 42.0688 54.8653 46.0242C57.5177 51.9124 61.8298 56.8093 66.9156 60.4533C67.0013 60.5134 67.0882 60.5759 67.1707 60.6389C67.7656 61.0722 68.3376 61.5194 68.9705 61.945C70.0757 62.7285 71.2024 63.4756 72.4182 64.0315C73.1727 64.3839 73.963 64.6464 74.7729 64.8143Z" fill="white"/>
</mask>
<g mask="url(#mask3_901_2)">
<path d="M74.7729 64.8143C73.3855 64.8303 70.1983 64.2001 70.1983 64.2001C70.1983 64.2001 68.3745 64.0659 64.1496 62.7056C61.3164 61.7931 59.2357 61.7845 57.0839 61.6819L56.9945 61.6762C56.3971 61.6415 55.7878 61.6042 55.189 61.5566C51.1613 61.2414 47.9473 59.9379 45.5729 56.3626C44.3252 54.4858 43.5809 52.3486 42.4709 50.3823C41.352 48.3991 39.9945 46.55 38.33 45.0429C35.5251 42.5029 32.0041 41.0259 28.4501 39.9848C28.3874 39.3053 28.503 38.453 28.374 37.4091C28.16 35.7187 27.4441 33.9843 26.8061 32.2435C26.8003 32.2309 26.7954 32.2177 26.791 32.2044C26.1335 30.4037 25.5661 28.598 25.728 26.8228C26.2956 20.5849 34.4939 18.5654 35.8039 12.2388C35.8039 12.2388 35.8337 12.2491 35.8882 12.2712L35.9169 12.2815C39.2975 13.5513 42.7043 15.0977 45.421 17.4161C45.7433 17.6915 46.0556 17.9803 46.3578 18.2827C46.5737 18.4958 46.7841 18.7156 46.9889 18.942C48.3657 20.4486 49.4194 22.25 50.0796 24.2253C51.1062 27.3053 51.5528 30.4907 51.9819 33.6777C52.5469 37.8727 53.0815 42.0688 54.8653 46.0242C57.5177 51.9124 61.8298 56.8093 66.9156 60.4533C67.0013 60.5134 67.0882 60.5759 67.1707 60.6389C67.7656 61.0722 68.3376 61.5194 68.9705 61.945C70.0757 62.7285 71.2024 63.4756 72.4182 64.0315C73.1727 64.3839 73.963 64.6464 74.7729 64.8143Z" fill="#0F69AF" stroke="white" stroke-width="2.18055"/>
</g>
</g>
</svg>
